<svg width="211" height="101" viewBox="0 0 211 101" fill="none" xmlns="http://www.w3.org/2000/svg">
<path d="M84.5 79.5312C84.5 80.1146 84.3854 80.6562 84.1562 81.1562C83.9479 81.6562 83.6562 82.0938 83.2812 82.4688C82.9271 82.8229 82.5 83.1042 82 83.3125C81.5 83.5208 80.9688 83.625 80.4062 83.625C79.9062 83.625 79.3958 83.5312 78.875 83.3438C78.375 83.1562 77.9271 82.8542 77.5312 82.4375L47.8438 51.4375V83H39.7188V41.6562C39.7188 40.8229 39.9479 40.0729 40.4062 39.4062C40.8854 38.7188 41.4896 38.2083 42.2188 37.875C42.9896 37.5625 43.7812 37.4896 44.5938 37.6562C45.4062 37.8021 46.1042 38.1771 46.6875 38.7812L76.375 69.75V38.1875H84.5V79.5312ZM129.156 60.4062C129.156 61.5312 128.958 62.75 128.562 64.0625C128.167 65.3542 127.521 66.5625 126.625 67.6875C125.75 68.7917 124.594 69.7188 123.156 70.4688C121.74 71.2188 120.01 71.5938 117.969 71.5938H103.312V63.875H117.969C119.073 63.875 119.927 63.5417 120.531 62.875C121.135 62.1875 121.438 61.3438 121.438 60.3438C121.438 59.2812 121.094 58.4479 120.406 57.8438C119.74 57.2396 118.927 56.9375 117.969 56.9375H103.312C102.208 56.9375 101.354 57.2812 100.75 57.9688C100.146 58.6354 99.8438 59.4688 99.8438 60.4688V71.8125C99.8438 72.8958 100.177 73.7396 100.844 74.3438C101.531 74.9479 102.375 75.25 103.375 75.25H117.969V83H103.312C102.188 83 100.969 82.8021 99.6562 82.4062C98.3646 82.0104 97.1562 81.375 96.0312 80.5C94.9271 79.6042 94 78.4479 93.25 77.0312C92.5 75.5938 92.125 73.8542 92.125 71.8125V60.4062C92.125 59.2812 92.3229 58.0729 92.7188 56.7812C93.1146 55.4688 93.75 54.2604 94.625 53.1562C95.5208 52.0312 96.6771 51.0938 98.0938 50.3438C99.5312 49.5938 101.271 49.2188 103.312 49.2188H117.969C119.094 49.2188 120.302 49.4167 121.594 49.8125C122.906 50.2083 124.115 50.8542 125.219 51.75C126.344 52.625 127.281 53.7812 128.031 55.2188C128.781 56.6354 129.156 58.3646 129.156 60.4062ZM164.188 57.3438H145.906C144.802 57.3438 143.969 57.625 143.406 58.1875C142.844 58.7292 142.562 59.5312 142.562 60.5938V83H134.438V60.5938C134.438 59.1979 134.615 57.9479 134.969 56.8438C135.323 55.7396 135.792 54.7708 136.375 53.9375C136.979 53.0833 137.667 52.3646 138.438 51.7812C139.208 51.1771 140.01 50.6875 140.844 50.3125C141.698 49.9375 142.552 49.6667 143.406 49.5C144.281 49.3125 145.094 49.2188 145.844 49.2188H164.188V57.3438ZM206.5 71.5938C206.5 72.9896 206.323 74.25 205.969 75.375C205.615 76.4792 205.146 77.4583 204.562 78.3125C203.979 79.1458 203.302 79.8646 202.531 80.4688C201.76 81.0521 200.948 81.5312 200.094 81.9062C199.26 82.2812 198.406 82.5625 197.531 82.75C196.677 82.9167 195.865 83 195.094 83H180.438C179.042 83 177.792 82.8229 176.688 82.4688C175.583 82.1146 174.604 81.6458 173.75 81.0625C172.917 80.4583 172.198 79.7708 171.594 79C171.01 78.2292 170.531 77.4271 170.156 76.5938C169.781 75.7396 169.5 74.8854 169.312 74.0312C169.146 73.1562 169.062 72.3438 169.062 71.5938V60.5938C169.062 58.5104 169.438 56.75 170.188 55.3125C170.958 53.8542 171.906 52.6771 173.031 51.7812C174.177 50.8646 175.417 50.2083 176.75 49.8125C178.083 49.4167 179.312 49.2188 180.438 49.2188H195.094V57.3438H180.5C179.417 57.3438 178.594 57.625 178.031 58.1875C177.469 58.7292 177.188 59.5312 177.188 60.5938V71.5312C177.188 72.6354 177.458 73.4688 178 74.0312C178.562 74.5938 179.375 74.875 180.438 74.875H195.094C196.198 74.875 197.021 74.5938 197.562 74.0312C198.104 73.4688 198.375 72.6562 198.375 71.5938V34.9375H206.5V71.5938Z" fill="#1398D1"/>
<path d="M25.8047 36H4.95703C4.62891 36 4.32422 35.9414 4.04297 35.8242C3.76172 35.707 3.51562 35.5488 3.30469 35.3496C3.10547 35.1387 2.94727 34.8926 2.83008 34.6113C2.71289 34.3301 2.6543 34.0254 2.6543 33.6973V10.793H7.22461V31.4297H25.8047V36ZM49.3242 29.584C49.3242 30.3691 49.2246 31.0781 49.0254 31.7109C48.8262 32.332 48.5625 32.8828 48.2344 33.3633C47.9062 33.832 47.5254 34.2363 47.0918 34.5762C46.6582 34.9043 46.2012 35.1738 45.7207 35.3848C45.252 35.5957 44.7715 35.7539 44.2793 35.8594C43.7988 35.9531 43.3418 36 42.9082 36H34.6641C34.0312 36 33.3398 35.8887 32.5898 35.666C31.8398 35.4434 31.1426 35.0801 30.498 34.5762C29.8652 34.0605 29.332 33.3984 28.8984 32.5898C28.4766 31.7695 28.2656 30.7676 28.2656 29.584V23.3965C28.2656 22.2246 28.4766 21.2344 28.8984 20.4258C29.332 19.6055 29.8652 18.9434 30.498 18.4395C31.1426 17.9238 31.8398 17.5547 32.5898 17.332C33.3398 17.1094 34.0312 16.998 34.6641 16.998H42.9082C44.0801 16.998 45.0762 17.209 45.8965 17.6309C46.7168 18.0527 47.3789 18.5859 47.8828 19.2305C48.3867 19.8633 48.75 20.5547 48.9727 21.3047C49.207 22.0547 49.3242 22.752 49.3242 23.3965V29.584ZM44.7539 23.4316C44.7539 22.7988 44.5957 22.3301 44.2793 22.0254C43.9629 21.7207 43.5059 21.5684 42.9082 21.5684H34.6992C34.0898 21.5684 33.627 21.7266 33.3105 22.043C32.9941 22.3477 32.8359 22.7988 32.8359 23.3965V29.584C32.8359 30.1816 32.9941 30.6387 33.3105 30.9551C33.627 31.2715 34.0898 31.4297 34.6992 31.4297H42.9082C43.5293 31.4297 43.9922 31.2715 44.2969 30.9551C44.6016 30.6387 44.7539 30.1816 44.7539 29.584V23.4316ZM57.8672 13.0957H53.2969V8.96484H57.8672V13.0957ZM57.8672 37.8281C57.8672 38.6133 57.7676 39.3164 57.5684 39.9375C57.3691 40.5703 57.1055 41.1211 56.7773 41.5898C56.4492 42.0703 56.0684 42.4746 55.6348 42.8027C55.2012 43.1426 54.7441 43.418 54.2637 43.6289C53.7949 43.8398 53.3203 43.9922 52.8398 44.0859C52.3594 44.1914 51.9023 44.2441 51.4688 44.2441H43.2246V39.6738H51.4688C52.0781 39.6738 52.5352 39.5156 52.8398 39.1992C53.1445 38.8828 53.2969 38.4258 53.2969 37.8281V16.998H57.8672V37.8281ZM81.8789 29.707C81.8789 30.3398 81.7676 31.0254 81.5449 31.7637C81.3223 32.4902 80.959 33.1699 80.4551 33.8027C79.9629 34.4238 79.3125 34.9453 78.5039 35.3672C77.707 35.7891 76.7344 36 75.5859 36H67.3418C66.709 36 66.0234 35.8887 65.2852 35.666C64.5586 35.4434 63.8789 35.0859 63.2461 34.5938C62.625 34.0898 62.1035 33.4395 61.6816 32.6426C61.2598 31.834 61.0488 30.8555 61.0488 29.707C61.0488 29.0742 61.1602 28.3887 61.3828 27.6504C61.6055 26.9121 61.9629 26.2324 62.4551 25.6113C62.959 24.9785 63.6094 24.4512 64.4062 24.0293C65.2148 23.6074 66.1934 23.3965 67.3418 23.3965H75.5859V27.7559H67.3418C66.7207 27.7559 66.2402 27.9492 65.9004 28.3359C65.5605 28.7109 65.3906 29.1797 65.3906 29.7422C65.3906 30.3398 65.584 30.8086 65.9707 31.1484C66.3691 31.4766 66.8379 31.6406 67.377 31.6406H75.5859C76.207 31.6406 76.6875 31.4531 77.0273 31.0781C77.3672 30.7031 77.5371 30.2344 77.5371 29.6719V23.291C77.5371 22.6934 77.3496 22.2188 76.9746 21.8672C76.6113 21.5156 76.1484 21.3398 75.5859 21.3398H65.5488V16.998H75.5859C76.2188 16.998 76.8984 17.1094 77.625 17.332C78.3633 17.5547 79.043 17.918 79.6641 18.4219C80.2969 18.9141 80.8242 19.5645 81.2461 20.373C81.668 21.1699 81.8789 22.1426 81.8789 23.291V29.707Z" fill="white"/>
</svg>
